<?xml version="1.0" standalone="no"?><!DOCTYPE svg PUBLIC "-//W3C//DTD SVG 1.1//EN" "http://www.w3.org/Graphics/SVG/1.1/DTD/svg11.dtd"><svg t="1745335028859" class="icon" viewBox="0 0 1024 1024" version="1.1" xmlns="http://www.w3.org/2000/svg" p-id="1918" xmlns:xlink="http://www.w3.org/1999/xlink" width="200" height="200"><path d="M614.6 142.7c31.9 6.8 62.7 19.4 92.3 37.6 27.4 16 52.4 36.5 75.2 61.6 25.1 22.8 45.6 47.9 61.6 75.2 18.2 29.6 30.8 60.4 37.6 92.3 9.1 31.9 14.2 65.5 15.4 100.9 1.1 35.3-4 70.1-15.4 104.3-6.8 31.9-19.4 62.7-37.6 92.3-34.2 57-79.8 102.6-136.8 136.8-29.6 18.2-60.4 31.3-92.3 39.3s-65.5 12.5-100.9 13.7c-35.3 1.1-69.5-2.8-102.6-12-33.1-9.1-63.8-22.2-92.3-39.3-28.5-17.1-55.3-37-80.4-59.8-47.9-50.2-80.9-107.2-99.2-171-6.8-31.9-10.8-65.5-12-100.9s2.8-69.5 12-102.6c9.1-33.1 22.8-64.4 41-94 34.2-57 79.8-102.6 136.8-136.8 29.6-18.2 60.4-30.8 92.3-37.6 34.2-11.4 68.4-17.1 102.6-17.1s68.4 5.7 102.6 17.1z m283.8 595c20.5-34.2 35.9-70.1 46.2-107.7 10.3-37.6 15.4-76.9 15.4-118s-4.6-80.9-13.7-119.7c-22.8-75.2-62.1-140.8-118-196.6-55.9-55.9-121.4-95.2-196.6-118C592.9 68.6 553 64 512 64s-80.4 5.1-118 15.4c-37.6 10.3-73.5 25.6-107.7 46.2-68.4 38.8-122 92.3-160.7 160.7-20.5 34.2-35.9 70.1-46.2 107.7C69.1 431.6 64 470.9 64 512s5.1 80.4 15.4 118c10.3 37.6 25.1 73.5 44.5 107.7s42.7 65 70.1 92.3 58.1 50.7 92.3 70.1c34.2 19.4 70.1 34.2 107.7 44.5 37.6 10.3 76.9 15.4 118 15.4s80.4-5.1 118-15.4c37.6-10.3 73.5-25.6 107.7-46.2 68.4-38.8 122-92.3 160.7-160.7z" p-id="1919" fill="#ffffff"></path></svg>