<?xml version="1.0" standalone="no"?><!DOCTYPE svg PUBLIC "-//W3C//DTD SVG 1.1//EN" "http://www.w3.org/Graphics/SVG/1.1/DTD/svg11.dtd"><svg t="1748074879767" class="icon" viewBox="0 0 1024 1024" version="1.1" xmlns="http://www.w3.org/2000/svg" p-id="6710" xmlns:xlink="http://www.w3.org/1999/xlink" width="200" height="200"><path d="M753.778 128H270.222c-78.446 0.247-141.975 63.776-142.222 142.222v483.557c0.247 78.446 63.776 141.979 142.222 142.222h483.557c78.445-0.243 141.979-63.776 142.222-142.222V270.222c-0.244-78.446-63.777-141.975-142.223-142.222z m65.583 606.148c-0.163 47.057-38.267 85.162-85.324 85.324h-64.578v-85.324c0.162-47.053 17.524-64.416 64.578-64.578h85.324v64.578z m-0.2-125.404h-95.552c-69.456 0.216-116.713 44.472-116.929 113.929v97.552H280.305c-41.664-0.144-75.405-33.884-75.552-75.552V281.352c0.147-41.664 33.888-75.405 75.552-75.552h463.304c41.668 0.147 75.408 33.888 75.552 75.552v327.392zM569.489 346.641c-17.564 0.064-31.778 14.304-31.809 31.868v114.603L313.217 268.645a30.76 30.76 0 0 0-44.572 0 30.76 30.76 0 0 0 0 44.572L493.113 537.68H378.509c-17.564 0.031-31.805 14.245-31.868 31.809 0 17.496 14.318 31.869 31.868 31.869h190.98c9.585 0 17.496-3.232 22.288-9.58a31.42 31.42 0 0 0 9.58-22.288V378.564c-0.031-17.586-14.277-31.837-31.869-31.864v-0.059z m-14.829 8.9" p-id="6711" fill="#ffffff"></path></svg>