<?xml version="1.0" standalone="no"?><!DOCTYPE svg PUBLIC "-//W3C//DTD SVG 1.1//EN" "http://www.w3.org/Graphics/SVG/1.1/DTD/svg11.dtd"><svg t="1748070630432" class="icon" viewBox="0 0 1024 1024" version="1.1" xmlns="http://www.w3.org/2000/svg" p-id="4666" xmlns:xlink="http://www.w3.org/1999/xlink" width="200" height="200"><path d="M758.42649836 284.7863456l-169.38992362-68.89461063-76.79535651 110.95228659-76.67875019-110.95228659-169.5065299 68.89461063 90.38816384-139.41601299 9.87507649-15.10299162-37.29390606-97.35947924 183.21594582 82.95270546 183.21594582-82.95270546-37.17729862 97.35947924 10.22375653 15.91696027z" fill="#9AD14B" p-id="4667"></path><path d="M805.01472937 186.96272111c99.45041618 83.53345704 162.65182309 208.77590997 162.65182306 348.88928191 0 251.52980267-203.89667486 455.42647755-455.42647753 455.42647866S56.81473958 787.38180682 56.81473958 535.85200302c0-141.50694991 64.47951966-267.91205041 165.78880128-351.44550633 39.50145155-32.64674359 84.69496125-39.8501316 133.83941778-38.92069888l-90.38816386 139.41601187 169.50653105-69.01121695 76.67874907 110.95228548 76.67874907-110.95228548 169.50653104 69.01121695-89.92401974-138.60318768c50.30824745-0.81168196 96.31572579 6.97245872 136.5133941 40.66409911z" fill="#F95428" p-id="4668"></path><path d="M291.61475894 535.85200302c0-120.47868303 46.82030252-230.03624834 123.26698006-311.59537583L266.17140221 284.7863456l90.38816385-139.41601299c-49.14445542-0.92943272-94.33796622 6.27395527-133.83941666 38.92069889-101.30928163 83.65006445-165.9054087 210.05402271-165.90540982 351.56097152 0 251.52980267 203.89667486 455.42647755 455.42647865 455.42647866 40.54634834 0 79.9323347-5.34452255 117.34170483-15.3362076-194.6012077-51.81614503-337.96816526-229.22342415-337.96816412-440.09027106z" fill="#E54728" p-id="4669"></path><path d="M717.76354258 888.11033575c-7.20338688 0-14.17355892-3.60112233-18.23996873-10.10715024-6.27395527-10.10714913-3.13697709-23.35241976 6.85470685-29.62637393 108.97681374-67.84971271 174.03822832-184.72613009 174.03822831-312.64141598 0-60.41310987-14.98752755-120.36321785-43.33464539-173.34086822-5.57659519-10.45582916-1.62679281-23.46788386 8.8301797-29.04447903 10.45582916-5.57659519 23.46788386-1.62679281 29.04447904 8.8301808 31.60070346 59.25160566 48.33048789 126.17188565 48.3304879 193.55630979 0 70.98554646-18.47318468 141.04280466-53.44293783 202.50195467-33.92485635 59.71689314-82.60402431 110.37153393-140.81073318 146.61939987a21.10028844 21.10028844 0 0 1-11.26979667 3.25244227z" fill="#FFFFFF" p-id="4670"></path><path d="M529.43629015 183.59367141l-17.19507192 143.25035015-76.67875019-110.95228659-169.5065299 68.89461063 90.38816384-139.41601299 9.87507649-15.10299162-37.29390606-97.35947924 183.21594582 82.95270546-48.67916793 42.05767598z" fill="#90BC42" p-id="4671"></path><path d="M821.28036855 299.77387203m-21.49355433 0a21.49355434 21.49355434 0 1 0 42.98710868 0 21.49355434 21.49355434 0 1 0-42.98710868 0Z" fill="#FFFFFF" p-id="4672"></path><path d="M818.84075156 170.4650093c-44.1486129-37.06183345-94.10589361-44.84597411-135.46620947-45.77540572l32.181455-84.11420969c3.13697709-8.1328196 1.04604015-17.31053712-5.34452145-23.35241866-6.38941936-5.92527525-15.68374431-7.55206693-23.5844924-3.94980239l-174.38690834 79.002902-174.26915759-79.002902c-7.90074698-3.60112233-17.19507192-2.09093694-23.58449128 3.94980239-6.38941936 5.92527525-8.48149964 15.21959906-5.34452256 23.35241866l31.83391831 83.30138439c-40.43088315 0.69736009-88.76137105 8.24828479-131.98055237 43.9165414-110.25492538 91.08552396-173.45747675 225.15701437-173.45747562 368.05868334 0 262.91620789 213.88721657 476.80342446 476.92003188 476.80342556 262.91620789 0 476.80342446-213.88721657 476.80342445-476.80342556 0-141.27487728-62.15651011-274.41693386-170.32049856-365.38699372zM503.41103855 135.49525613c5.57659519 2.55622553 12.08262197 2.55622553 17.77582346 0l135.58281802-61.45915-18.58864877 48.56370385c-2.439617 6.38941936-1.74225689 13.59280737 2.09093695 19.40261628l63.08594283 97.24287181-106.1885156-43.2191813c-9.29432494-3.83433718-19.98336896-0.58075268-25.79203675 7.66753212l-59.01953302 85.39232134-59.01953303-85.39232134c-4.0664098-5.92527525-10.80450922-9.29432494-17.65921605-9.29432493-2.67168961 0-5.45998665 0.46528747-8.13281958 1.62679281l-106.18851673 43.2191813 63.08594283-97.24287181c3.71772975-5.8086667 4.53055504-12.89544615 2.09093695-19.40261628l-18.58864878-48.56370385 135.46506727 61.45915z m8.83017968 834.17420601c-239.33171662 0-433.93292321-194.60235105-433.93292431-433.9329232 0-130.00507949 57.50934764-251.99509013 157.88919765-334.83118708 21.95769847-18.12450465 46.82030252-28.34826117 79.58365465-32.29806355l-67.73310529 104.44625869c-5.11244993 7.90074698-4.53055504 18.12450465 1.51018426 25.32674817a21.34608005 21.34608005 0 0 0 24.63053253 6.15734676l153.4741067-62.50519017 66.92028 96.77758435c3.94980236 5.8086667 10.57243659 9.29432494 17.65921716 9.29432382s13.70941479-3.48565712 17.65921603-9.29432382l66.92028113-96.77758435 153.4741067 62.50519017c8.71357227 3.48565712 18.70525731 1.04604015 24.6305314-6.15734676 5.92527525-7.20338688 6.62263533-17.54375195 1.51018429-25.32674817l-67.15235152-103.51682709c33.80824893 4.18301721 59.36821308 14.87091901 81.9066631 33.80824895 98.52098347 82.72063172 154.98429207 203.89667486 154.98429207 332.39157008-0.00114333 239.33057328-194.60235105 433.93292321-433.93406655 433.9329232z" fill="#333333" p-id="4673"></path></svg>