<?xml version="1.0" standalone="no"?><!DOCTYPE svg PUBLIC "-//W3C//DTD SVG 1.1//EN" "http://www.w3.org/Graphics/SVG/1.1/DTD/svg11.dtd"><svg t="1745642805563" class="icon" viewBox="0 0 1024 1024" version="1.1" xmlns="http://www.w3.org/2000/svg" p-id="8835" xmlns:xlink="http://www.w3.org/1999/xlink" width="200" height="200"><path d="M938.7 0H85.3C38.4 0 0 38.4 0 85.3v853.3c0 46.9 38.4 85.3 85.3 85.3h853.3c46.9 0 85.3-38.4 85.3-85.3V85.3c0-46.9-38.4-85.3-85.3-85.3z m0 938.7H85.3V85.3h853.3v853.3z" fill="#ffffff" p-id="8836"></path><path d="M1024 341.3H682.7V0c-46.9 0-85.3 38.4-85.3 85.3v256c0 46.9 38.4 85.3 85.3 85.3h256c46.9 0 85.3-38.4 85.3-85.3zM554.7 477.9c17.1 17.1 17.1 42.7 0 59.7L251.8 840.5c-17.1 17.1-42.7 17.1-59.7 0-17.1-17.1-17.1-42.7 0-59.7L495 477.9c17.1-17.1 42.7-17.1 59.7 0z" fill="#ffffff" p-id="8837"></path><path d="M516.3 426.7c51.2-4.3 93.9 42.7 89.6 93.9l-17.1 162.1c-4.3 21.3-21.3 38.4-46.9 38.4-21.3-4.3-38.4-21.3-38.4-46.9l17.1-162.1-149.3 8.5c-25.6 0-42.7-17.1-46.9-38.4 0-25.6 17.1-42.7 38.4-46.9l153.6-8.5z" fill="#ffffff" p-id="8838"></path></svg>